# xmcd
#
# Track frame offsets: 
#        150
#        4088
#        20036
#        38356
#        55726
#        71345
#        98166
#        115487
#        139986
#        160971
#        182763
#        197950
#        216614
#        232873
#        253407
#        266378
#        282216
#        304389
#
# Disc length: 4368 seconds
#
# Revision: 0
# Processed by: cddbd v1.5.2PL0 Copyright (c) Steve Scherf et al.
# Submitted via: ExactAudioCopy v1.0b3
#
DISCID=0a110e12
DTITLE=Ozrosaurus - Hysterical
DYEAR=2007
DGENRE=Hip Hop
TTITLE0=Intro
TTITLE1=0%
TTITLE2=星を願う
TTITLE3=Full Moon [I'm Sorry]
TTITLE4=1 for DA 何 ?
TTITLE5=十字架の上 [Power Of Love]
TTITLE6=It's A One Day
TTITLE7=How High [No Joke]
TTITLE8=Ahh Yeah
TTITLE9=Love vs Hate [My Lover]
TTITLE10=ああだのこう
TTITLE11=ヒステリック
TTITLE12=Sander
TTITLE13=I Lv U
TTITLE14=メメント
TTITLE15=J.O.K.E.
TTITLE16=Exodus [大脱出計画]
TTITLE17=Bye Bye
EXTD=
EXTT0=
EXTT1=
EXTT2=
EXTT3=
EXTT4=
EXTT5=
EXTT6=
EXTT7=
EXTT8=
EXTT9=
EXTT10=
EXTT11=
EXTT12=
EXTT13=
EXTT14=
EXTT15=
EXTT16=
EXTT17=
PLAYORDER=
